<?xml version="1.0" standalone="no"?>
<!DOCTYPE svg PUBLIC "-//W3C//DTD SVG 20010904//EN"
 "http://www.w3.org/TR/2001/REC-SVG-20010904/DTD/svg10.dtd">
<svg version="1.0" xmlns="http://www.w3.org/2000/svg"
 width="1000.000000pt" height="1080.000000pt" viewBox="0 0 1000.000000 1080.000000"
 preserveAspectRatio="xMidYMid meet">

<g transform="translate(0.000000,1080.000000) scale(0.100000,-0.100000)"
fill="#000000" stroke="none">
<path d="M1671 10789 c-457 -48 -905 -281 -1206 -626 -222 -255 -367 -555
-433 -898 l-27 -140 0 -3325 0 -3325 23 -120 c28 -145 62 -271 102 -370 254
-641 831 -1087 1510 -1170 92 -11 -6 -13 -767 -14 l-873 -1 0 -400 0 -400
5000 0 5000 0 0 400 0 400 -872 1 c-499 1 -841 5 -798 10 316 33 636 156 904
347 104 74 316 284 396 392 154 209 263 443 320 685 53 225 50 46 50 3560 0
3508 2 3346 -50 3570 -108 462 -402 876 -813 1143 -155 101 -386 198 -576 243
-217 51 -96 49 -3571 48 -1779 -1 -3273 -6 -3319 -10z m5150 -2559 c158 -49
281 -166 341 -326 l23 -59 3 -1150 c2 -813 -1 -1170 -8 -1217 -33 -196 -187
-361 -386 -413 -51 -13 -278 -15 -1785 -15 -1107 0 -1746 4 -1780 10 -131 24
-279 131 -346 250 -67 118 -63 43 -64 1339 0 1156 0 1177 20 1242 50 158 179
289 339 340 54 17 142 18 1818 18 1731 1 1763 1 1825 -19z m115 -3531 c136
-50 261 -157 317 -273 28 -57 87 -228 87 -251 0 -7 -24 -15 -60 -18 -84 -9
-204 -41 -290 -77 -380 -163 -628 -509 -665 -933 l-7 -77 -1841 2 -1842 3 -50
23 c-68 31 -118 83 -150 155 -24 52 -27 69 -22 126 3 36 21 113 40 171 20 58
90 271 157 474 66 204 132 391 146 417 77 141 233 250 397 278 29 5 875 8
1882 7 l1830 -1 71 -26z m662 -715 c166 -34 316 -112 444 -233 132 -124 223
-275 269 -446 32 -118 32 -336 0 -455 -141 -528 -680 -820 -1196 -649 -285 95
-511 334 -595 629 -28 96 -38 290 -21 396 61 376 355 682 731 759 92 19 275
18 368 -1z m-5406 -3461 c23 -20 23 -57 1 -74 -15 -11 -16 -11 -5 1 27 31 11
72 -33 83 -19 4 -19 5 -1 6 11 0 28 -6 38 -16z m-69 -8 c-3 -9 -8 -14 -10 -11
-3 3 -2 9 2 15 9 16 15 13 8 -4z m-1760 -114 c22 -61 43 -108 47 -104 4 4 24
56 45 116 21 59 42 107 47 107 11 0 9 -8 -42 -150 -23 -64 -43 -106 -53 -108
-15 -3 -17 0 -67 143 -15 44 -31 88 -36 99 -5 13 -3 17 6 14 8 -2 32 -55 53
-117z m517 89 c0 -23 4 -30 20 -30 11 0 20 -4 20 -10 0 -5 -10 -10 -21 -10
-20 0 -21 -4 -17 -71 3 -55 8 -74 23 -85 23 -17 14 -29 -13 -15 -11 6 -22 25
-26 42 -10 51 -7 209 4 209 6 0 10 -13 10 -30z m515 16 c25 -11 33 -19 29 -30
-7 -19 -5 -19 -40 -1 -36 18 -55 19 -78 2 -27 -20 -10 -42 49 -61 87 -27 108
-75 54 -128 -29 -29 -33 -30 -90 -25 -67 6 -74 9 -66 31 5 12 12 13 41 4 51
-16 101 0 101 32 0 17 -8 28 -24 35 -68 28 -106 52 -109 68 -13 70 53 106 133
73z m105 -16 c0 -25 4 -30 25 -30 16 0 25 -6 25 -15 0 -9 -9 -15 -25 -15 -25
0 -26 -1 -23 -62 3 -54 6 -64 26 -73 12 -5 21 -14 19 -20 -7 -19 -36 -16 -56
4 -19 19 -21 33 -21 131 0 91 3 110 15 110 10 0 15 -10 15 -30z m482 -32 l3
-62 36 32 c20 18 45 32 55 32 14 0 9 -9 -21 -40 l-39 -40 42 -60 c40 -57 41
-60 20 -60 -16 0 -32 14 -53 45 -16 25 -33 45 -37 45 -5 0 -8 -20 -8 -45 0
-38 -3 -45 -20 -45 -19 0 -20 7 -20 130 0 122 1 130 20 130 16 0 19 -8 22 -62z
m193 30 c1 -20 -2 -24 -11 -17 -8 7 -14 6 -17 -3 -3 -7 -6 2 -6 20 -1 27 3 33
17 30 11 -2 17 -13 17 -30z m-44 -35 c13 -16 12 -17 -3 -4 -17 13 -22 21 -14
21 2 0 10 -8 17 -17z m-1502 -19 c12 -15 21 -40 21 -55 0 -29 0 -29 -65 -29
-71 0 -78 -7 -49 -49 15 -20 23 -23 65 -19 48 5 65 -4 33 -16 -69 -27 -134 19
-134 95 0 87 82 133 129 73z m191 16 c17 -11 10 -13 -40 -10 -47 2 -75 -28
-75 -80 0 -55 26 -80 82 -80 27 0 42 -4 38 -10 -3 -5 -24 -10 -46 -10 -49 0
-85 32 -94 83 -7 38 13 89 42 106 23 13 73 14 93 1z m271 -19 c23 -23 29 -38
29 -71 0 -53 -42 -100 -90 -100 -48 0 -90 47 -90 100 0 53 42 100 90 100 22 0
41 -9 61 -29z m79 13 c0 -14 2 -14 22 0 24 17 38 20 38 9 0 -5 -14 -16 -30
-25 -29 -17 -30 -19 -30 -93 0 -43 -4 -75 -10 -75 -6 0 -10 40 -10 100 0 60 4
100 10 100 6 0 10 -7 10 -16z m539 -1 c27 -22 40 -77 29 -120 -23 -86 -143
-84 -167 2 -12 45 2 99 32 120 29 20 80 19 106 -2z m196 -3 c0 -9 -8 -14 -20
-13 -62 8 -98 -40 -75 -97 12 -30 36 -42 75 -37 12 1 20 -4 20 -13 0 -10 -12
-16 -38 -18 -73 -6 -120 77 -86 152 14 31 45 46 89 43 24 -1 35 -7 35 -17z
m5404 -83 c8 -26 17 -47 21 -47 4 0 13 21 21 47 8 25 20 48 26 50 13 5 -22
-113 -38 -131 -12 -14 -18 -5 -45 69 -16 44 -20 65 -12 63 7 -3 19 -26 27 -51z
m638 38 c2 -6 -9 -11 -23 -10 -39 0 -42 -23 -5 -36 34 -12 49 -43 31 -64 -13
-16 -38 -19 -64 -9 -27 10 -18 22 17 20 38 -1 43 19 8 37 -36 18 -48 42 -31
62 14 17 61 17 67 0z m333 -20 c0 -35 16 -47 26 -20 4 8 13 15 22 15 13 0 13
-3 -2 -19 -16 -18 -16 -21 -1 -50 19 -38 8 -40 -22 -3 l-22 27 -1 -27 c0 -16
-4 -28 -10 -28 -6 0 -10 30 -10 70 0 40 4 70 10 70 6 0 10 -16 10 -35z m580
32 c0 -4 -34 -104 -45 -136 -3 -8 -8 -11 -11 -8 -8 7 38 147 48 147 4 0 8 -2
8 -3z m70 -57 c0 -33 4 -60 10 -60 6 0 10 -4 10 -10 0 -5 -13 -10 -30 -10 -16
0 -30 5 -30 10 0 6 5 10 10 10 6 0 10 20 10 45 0 38 -2 43 -17 38 -16 -6 -16
-4 1 15 29 34 36 27 36 -38z m130 55 c0 -6 -60 -127 -66 -134 -2 -2 -7 -2 -10
1 -3 3 6 29 20 57 14 28 26 53 26 56 0 3 -13 5 -30 5 -16 0 -30 5 -30 10 0 6
20 10 45 10 25 0 45 -2 45 -5z m82 -12 c39 -35 8 -122 -44 -123 -10 0 -18 5
-18 10 0 6 9 10 20 10 10 0 24 10 31 22 10 18 9 20 -6 15 -24 -10 -55 10 -55
36 0 44 38 61 72 30z m116 5 c21 -21 13 -45 -25 -77 l-38 -30 43 -1 c23 0 42
-4 42 -10 0 -5 -22 -10 -50 -10 -62 0 -65 15 -14 63 42 40 39 62 -8 53 -26 -5
-29 -4 -18 9 15 18 51 20 68 3z m110 0 c21 -21 13 -45 -25 -77 l-38 -30 43 -1
c23 0 42 -4 42 -10 0 -5 -22 -10 -50 -10 -62 0 -65 15 -14 63 42 40 39 62 -8
53 -26 -5 -29 -4 -18 9 15 18 51 20 68 3z m122 2 c0 -5 -11 -10 -25 -10 -14 0
-29 -8 -35 -20 -9 -17 -8 -20 7 -18 39 3 53 -3 59 -27 12 -48 -39 -73 -78 -38
-28 25 -19 92 16 115 16 11 56 10 56 -2z m100 -9 c-5 -11 -15 -23 -21 -26 -6
-5 -2 -13 11 -22 42 -29 8 -82 -43 -69 -37 9 -34 27 3 20 22 -5 31 -2 36 11 6
16 -3 28 -31 39 -6 2 -5 9 3 17 18 19 15 29 -8 29 -11 0 -20 5 -20 10 0 6 18
10 40 10 37 0 40 -2 30 -19z m110 0 c-5 -11 -15 -23 -20 -26 -6 -4 -1 -14 12
-25 20 -15 21 -21 10 -44 -11 -26 -34 -32 -66 -20 -28 11 -17 24 14 18 22 -5
31 -2 36 11 6 16 -3 28 -31 39 -6 2 -5 9 3 17 18 19 15 29 -8 29 -11 0 -20 5
-20 10 0 6 18 10 40 10 37 0 40 -2 30 -19z m-1689 -39 c-15 -5 -14 -59 2 -65
6 -2 9 -8 5 -12 -13 -14 -36 15 -40 53 -7 54 0 67 24 45 11 -10 15 -19 9 -21z
m-361 13 c9 -10 9 -15 1 -15 -15 0 -14 -57 2 -63 6 -2 9 -7 6 -11 -15 -17 -37
8 -41 47 -7 58 5 74 32 42z m-172 -7 c23 -23 13 -38 -24 -38 -46 0 -41 -23 7
-30 27 -4 30 -7 16 -13 -42 -16 -77 6 -77 48 0 37 52 59 78 33z m109 5 c14 -6
10 -9 -17 -13 -29 -4 -35 -9 -35 -30 0 -21 5 -26 33 -28 36 -4 34 -22 -3 -22
-28 0 -55 24 -55 50 0 22 25 50 45 50 7 0 22 -3 32 -7z m177 -9 c21 -20 20
-43 -1 -66 -20 -22 -46 -23 -67 -2 -31 30 -9 84 34 84 10 0 26 -7 34 -16z m86
6 c0 -4 -7 -10 -15 -14 -9 -3 -15 -19 -15 -41 0 -19 -4 -35 -10 -35 -5 0 -10
22 -10 49 0 45 2 49 25 49 14 0 25 -4 25 -8z m274 -6 c21 -20 20 -43 -1 -66
-20 -22 -46 -23 -67 -2 -31 30 -9 84 34 84 10 0 26 -7 34 -16z m121 7 c3 -5
-9 -11 -27 -13 -28 -2 -33 -7 -33 -28 0 -21 5 -26 33 -28 36 -4 34 -22 -3 -22
-28 0 -55 24 -55 50 0 37 67 69 85 41z m250 0 c3 -5 -9 -11 -27 -13 -28 -2
-33 -7 -33 -28 0 -21 5 -26 33 -28 36 -4 34 -22 -3 -22 -28 0 -55 24 -55 50 0
37 67 69 85 41z m99 -7 c31 -30 9 -84 -34 -84 -24 0 -50 26 -50 50 0 24 26 50
50 50 10 0 26 -7 34 -16z m113 4 c7 -5 14 -5 18 2 10 16 42 12 49 -6 10 -25 7
-84 -4 -84 -5 0 -10 18 -10 41 0 33 -3 40 -17 37 -13 -2 -19 -14 -21 -41 -4
-50 -22 -47 -22 4 0 36 -2 40 -22 37 -19 -2 -24 -10 -26 -40 -5 -55 -22 -46
-22 10 0 48 0 49 33 49 17 0 37 -4 44 -9z m-327 -78 c0 -5 -4 -10 -10 -10 -5
0 -10 5 -10 10 0 6 5 10 10 10 6 0 10 -4 10 -10z"/>
<path d="M3262 7937 c-50 -19 -98 -62 -121 -110 -21 -43 -21 -44 -21 -1174 l0
-1131 28 -53 c20 -39 41 -62 77 -84 l48 -30 1726 0 1726 0 40 22 c50 27 80 58
100 105 13 33 15 171 15 1173 0 1098 -1 1137 -19 1173 -25 48 -66 87 -113 106
-33 14 -223 16 -1745 15 -1288 0 -1716 -3 -1741 -12z"/>
<path d="M7290 3440 l0 -250 -255 0 -255 0 0 -115 0 -115 256 -2 255 -3 -1
-231 c0 -127 2 -238 6 -247 5 -15 23 -17 120 -17 l114 0 0 250 0 250 240 0
240 0 0 115 0 115 -237 2 -238 3 -3 248 -2 247 -120 0 -120 0 0 -250z"/>
<path d="M2150 500 c0 -5 5 -10 10 -10 6 0 10 5 10 10 0 6 -4 10 -10 10 -5 0
-10 -4 -10 -10z"/>
<path d="M536 418 c-28 -39 -21 -48 39 -48 48 0 55 3 55 19 0 48 -67 68 -94
29z"/>
<path d="M986 424 c-50 -50 -21 -144 44 -144 48 0 80 50 66 104 -13 53 -75 75
-110 40z"/>
<path d="M1616 408 c-32 -46 -8 -118 39 -118 28 0 55 34 55 70 0 36 -27 70
-55 70 -13 0 -31 -10 -39 -22z"/>
<path d="M9094 375 c-7 -18 3 -35 21 -35 18 0 26 15 19 34 -8 20 -33 21 -40 1z"/>
<path d="M9424 325 c-4 -9 -2 -21 4 -27 16 -16 47 -5 47 17 0 26 -42 34 -51
10z"/>
<path d="M7425 340 c-4 -6 5 -10 19 -10 14 0 26 5 26 10 0 6 -9 10 -19 10 -11
0 -23 -4 -26 -10z"/>
<path d="M7704 336 c-10 -26 4 -48 28 -44 17 2 23 10 23 28 0 18 -6 26 -23 28
-13 2 -25 -3 -28 -12z"/>
<path d="M8064 336 c-10 -26 4 -48 28 -44 17 2 23 10 23 28 0 18 -6 26 -23 28
-13 2 -25 -3 -28 -12z"/>
<path d="M8534 336 c-10 -26 4 -48 28 -44 17 2 23 10 23 28 0 18 -6 26 -23 28
-13 2 -25 -3 -28 -12z"/>
</g>
</svg>
